<svg xmlns="http://www.w3.org/2000/svg" width="100" height="100" viewBox="0 0 100 100"><defs><style>.a{fill:#4b93ff;}.b{fill:#fff;}.c,.e{fill:#ccc;}.c,.d{stroke:#0c1b5c;stroke-miterlimit:10;stroke-width:2px;}.d{fill:none;}.f{fill:#0c1b5c;}</style></defs><title>icons</title><path class="a" d="M14,69s-8,0-8-7V51a7.1048,7.1048,0,0,1,4-6l7-3H72l17,5s5,2,5,6.5V64s0,5-5,5Z"/><path class="b" d="M7,57h3.5A3.5,3.5,0,0,0,14,53.5h0A3.5,3.5,0,0,0,10.5,50H7Z"/><path class="b" d="M94,56v3.5c-.0348,0-2.07-.0005-2.1041-.0016a3.5,3.5,0,0,1-.0223-6.9961C91.9156,52.5008,93.9577,52.5,94,52.5Z"/><path class="c" d="M41.5,28.5V42l30.681.0532L61.5,31.5s-3-3-6-3Z"/><path class="c" d="M34.5,28.5s-7,0-10,4S17.1875,42,17.1875,42H41.5V28.5Z"/><path class="d" d="M14,69s-8,0-8-7V51a7.1048,7.1048,0,0,1,4-6l7-3H72l17,5s5,2,5,6.5V64s0,5-5,5Z"/><circle class="e" cx="76" cy="67" r="9"/><path class="f" d="M76,59a8,8,0,1,1-8,8,8.0091,8.0091,0,0,1,8-8m0-2A10,10,0,1,0,86,67,10,10,0,0,0,76,57Z"/><circle class="f" cx="76" cy="67" r="3.5"/><circle class="e" cx="24" cy="67" r="9"/><path class="f" d="M24,59a8,8,0,1,1-8,8,8.0091,8.0091,0,0,1,8-8m0-2A10,10,0,1,0,34,67,10,10,0,0,0,24,57Z"/><circle class="f" cx="24" cy="67" r="3.5"/><path class="b" d="M53,31a4.6474,4.6474,0,0,1,1.6653-.2443,6.5724,6.5724,0,0,1,1.6606.243,5.6737,5.6737,0,0,1,1.5424.7206A3.3368,3.3368,0,0,1,59,33c-.5353-.2238-1.0083-.4121-1.49-.5876-.4893-.157-.9691-.3155-1.4625-.4539C55.0609,31.6639,54.06,31.4216,53,31Z"/></svg>