<svg xmlns="http://www.w3.org/2000/svg" width="100" height="100" viewBox="0 0 100 100"><defs><style>.a{fill:#4b93ff;}.b{fill:#0c1b5c;}.c{fill:#fff;}</style></defs><title>icons</title><polygon class="a" points="14.627 88.093 14.627 35.168 50 19.25 85.373 35.168 85.373 88.093 14.627 88.093"/><path class="b" d="M50,20.245,84.4651,35.7543V87.186h-68.93V35.7543L50,20.245m0-1.9892L13.7209,34.5814V89H86.2791V34.5814L50,18.2558Z"/><polygon class="c" points="46.599 71.994 46.599 60.204 34.354 60.204 34.354 53.401 46.599 53.401 46.599 40.704 53.401 40.704 53.401 53.401 65.646 53.401 65.646 60.204 53.401 60.204 53.401 71.994 46.599 71.994"/><path class="b" d="M52.7209,41.3837V54.0814H64.9651v5.4419H52.7209V71.3139H47.2791V59.5233H35.0349V54.0814H47.2791V41.3837h5.4418m1.3605-1.36H45.9186V52.7209H33.6744v8.1628H45.9186V72.6744h8.1628V60.8837H66.3256V52.7209H54.0814V40.0233Z"/><polygon class="a" points="50 19.989 11 36.83 11 28.829 50 11.988 89 28.829 89 36.83 50 19.989"/><path class="b" d="M50,12.9759,88.093,29.4251V35.45L50.7191,19.3114,50,19.0009l-.7191.31L11.907,35.45v-6.025L50,12.9759M50,11,10.093,28.2326v9.9767L50,20.9767,89.907,38.2093V28.2326L50,11Z"/></svg>