<svg xmlns="http://www.w3.org/2000/svg" width="100" height="100" viewBox="0 0 100 100"><defs><style>.a{fill:#0c1b5c;}.b{fill:#4b93ff;}.b,.c{stroke:#0c1b5c;stroke-miterlimit:10;stroke-width:2px;}.c{fill:none;}</style></defs><title>icons</title><path class="a" d="M54.1667,13.8333a4.1667,4.1667,0,1,1-8.3334,0C45.8333,11.5321,50,8,50,8S54.1667,11.5321,54.1667,13.8333Z"/><rect class="b" x="46" y="26.5" width="8" height="52.5"/><path class="b" d="M66,85H57.9309a8,8,0,1,0-15.8618,0H34a2,2,0,0,0-2,2v6H68V87A2,2,0,0,0,66,85Z"/><circle class="b" cx="50" cy="23" r="6"/><circle class="a" cx="23" cy="23" r="5"/><path class="a" d="M37.4545,64.0226a15.0054,15.0054,0,0,1-28.8331.264Z"/><polygon class="a" points="10.456 64.793 8.621 64.287 20.044 26.707 21.956 27.293 10.456 64.793"/><polygon class="a" points="35.455 64.793 37.455 64.023 25.533 26.707 23.621 27.293 35.455 64.793"/><path class="c" d="M27,21s6.6946-6.573,18.3473-1.7865"/><circle class="a" cx="76.9683" cy="23" r="5"/><path class="a" d="M62.5138,64.0226a15.0054,15.0054,0,0,0,28.8331.264Z"/><polygon class="a" points="89.512 64.793 91.347 64.287 79.924 26.707 78.012 27.293 89.512 64.793"/><polygon class="a" points="64.513 64.793 62.513 64.023 74.435 26.707 76.347 27.293 64.513 64.793"/><path class="c" d="M72.9683,21s-6.6946-6.573-18.3473-1.7865"/></svg>