<svg xmlns="http://www.w3.org/2000/svg" width="100" height="100" viewBox="0 0 100 100"><defs><style>.a{fill:#ccc;}.b{fill:#4b93ff;}.c{fill:#0c1b5c;}</style></defs><title>icons</title><rect class="a" x="10" y="20" width="80" height="60"/><polygon class="b" points="49.425 63.025 39.225 73.225 39.128 68.372 34.275 68.275 44.475 58.075 49.425 63.025"/><polygon class="b" points="50.275 63.025 60.475 73.225 60.572 68.372 65.425 68.275 55.225 58.075 50.275 63.025"/><circle class="a" cx="50" cy="57" r="9"/><path class="c" d="M50,49a8,8,0,1,1-8,8,8.0091,8.0091,0,0,1,8-8m0-2A10,10,0,1,0,60,57,10,10,0,0,0,50,47Z"/><rect class="c" x="25.5" y="32.5" width="49" height="8"/><path class="c" d="M10,20V80H90V20ZM86,69a7,7,0,0,0-7,7H21a7,7,0,0,0-7-7V31a7,7,0,0,0,7-7H79a7,7,0,0,0,7,7Z"/></svg>