<svg xmlns="http://www.w3.org/2000/svg" width="100" height="100" viewBox="0 0 100 100"><defs><style>.a{fill:#4b93ff;}.b{fill:#0c1b5c;}.c{fill:#ccc;}</style></defs><title>icons</title><rect class="a" x="15.7109" y="18.9067" width="69.5781" height="50.3994"/><path class="b" d="M84.3828,19.8139V68.3992H16.6172V19.8139H84.3828M86.1967,18H14.8033V70.2131H86.1967V18Z"/><path class="b" d="M86.1967,70.2131V18H14.8033V70.2131H43.5738v6.3935H29.9877A2.3974,2.3974,0,0,0,27.59,79.0041v3.73A.2664.2664,0,0,0,27.8566,83H72.0779a.2664.2664,0,0,0,.2664-.2664V78.7377a2.1312,2.1312,0,0,0-2.1312-2.1311H56.3607V70.2131ZM18,65.9508V22.2623H83V65.9508Z"/><rect class="c" x="79.2705" y="67.0164" width="2.1311" height="2.1311"/></svg>