<svg xmlns="http://www.w3.org/2000/svg" width="100" height="100" viewBox="0 0 100 100"><defs><style>.a,.d{fill:none;stroke-miterlimit:10;}.a{stroke:#0c1b5c;stroke-width:2.2254px;}.b{fill:#4b93ff;}.c{fill:#0c1b5c;}.d{stroke:#4b93ff;stroke-width:1.814px;}</style></defs><title>icons</title><line class="a" x1="20.0141" y1="89" x2="78.9859" y2="89"/><line class="a" x1="30.0282" y1="89" x2="44.493" y2="35.5915"/><line class="a" x1="70.0845" y1="89" x2="55.6197" y2="35.5915"/><line class="a" x1="32.2535" y1="82.3239" x2="67.8592" y2="82.3239"/><line class="a" x1="33.3662" y1="76.7606" x2="66.7465" y2="76.7606"/><line class="a" x1="35.5915" y1="66.7465" x2="64.5211" y2="66.7465"/><line class="a" x1="38.9296" y1="57.8451" x2="61.1831" y2="57.8451"/><line class="a" x1="41.1549" y1="47.831" x2="58.9577" y2="47.831"/><line class="a" x1="41.1549" y1="47.831" x2="61.1831" y2="57.8451"/><line class="a" x1="61.1831" y1="57.8451" x2="35.5915" y2="66.7465"/><line class="a" x1="35.5915" y1="66.7465" x2="66.7465" y2="76.7606"/><line class="a" x1="37.8169" y1="82.3239" x2="37.8169" y2="89"/><line class="a" x1="43.3803" y1="82.3239" x2="43.3803" y2="89"/><line class="a" x1="50.0563" y1="82.3239" x2="50.0563" y2="89"/><line class="a" x1="56.7324" y1="82.3239" x2="56.7324" y2="89"/><line class="a" x1="62.2958" y1="82.3239" x2="62.2958" y2="89"/><circle class="b" cx="50.0563" cy="27.8028" r="3.338"/><path class="c" d="M50.0563,20.0141a7.7888,7.7888,0,1,1-7.7887,7.7887,7.7975,7.7975,0,0,1,7.7887-7.7887m0-2.2254A10.0141,10.0141,0,1,0,60.07,27.8028,10.0141,10.0141,0,0,0,50.0563,17.7887Z"/><path class="d" d="M30.0282,10s-15.5775,16.69,0,36.7183"/><path class="a" d="M35.5915,13.338s-13.3521,12.24-1.1126,28.93"/><path class="d" d="M40.0423,18.4652s-8.6194,7.9011-.7183,18.6753"/><path class="d" d="M69.8372,10s15.5775,16.69,0,36.7183"/><path class="a" d="M64.2739,13.338s13.3521,12.24,1.1126,28.93"/><path class="d" d="M59.8232,18.4652s8.6193,7.9011.7182,18.6753"/></svg>