<svg xmlns="http://www.w3.org/2000/svg" width="100" height="100" viewBox="0 0 100 100"><defs><style>.a,.c{fill:#4b93ff;}.b{fill:#0c1b5c;}.c,.d{stroke:#0c1b5c;stroke-miterlimit:10;stroke-width:1.8421px;}.d,.f{fill:#ccc;}.e{fill:#fff;}</style></defs><title>icons</title><rect class="a" x="10.3804" y="16.9072" width="42.397" height="41.4746"/><path class="b" d="M51.87,17.814V57.4755H11.2876V17.814H51.87M53.6842,16H9.4737V59.29h44.21V16Z"/><rect class="c" x="9.4737" y="59.2895" width="44.2105" height="16.5789"/><path class="c" d="M58.29,26.1316h18.421a9.1875,9.1875,0,0,1,7.3684,4.6052,118.0877,118.0877,0,0,1,6.4474,13.8158v25.79s0,5.5263-5.5263,5.5263H53.6842V30.5066S54.6053,26.1316,58.29,26.1316Z"/><path class="d" d="M90.5263,52.8421H69.3421A1.8421,1.8421,0,0,1,67.5,51V34.4211a1.8421,1.8421,0,0,1,1.8421-1.8422H85l5.5263,11.6283Z"/><path class="e" d="M89.6053,62.0526v3.2237c-.0321,0-1.9062-.0005-1.938-.0014a3.2237,3.2237,0,0,1-.0206-6.4438c.0387-.0014,1.92-.0022,1.9586-.0022Z"/><path class="e" d="M10.3947,65.7368V62.5132c.0321,0,1.9062,0,1.938.0014a3.2237,3.2237,0,0,1,.0206,6.4438c-.0387.0014-1.92.0021-1.9586.0021Z"/><path class="f" d="M28.8159,85.0791a8.29,8.29,0,1,1,8.29-8.29A8.2991,8.2991,0,0,1,28.8159,85.0791Z"/><path class="b" d="M28.8158,69.4211A7.3684,7.3684,0,1,1,21.4474,76.79a7.3767,7.3767,0,0,1,7.3684-7.3684m0-1.8422A9.2106,9.2106,0,1,0,38.0263,76.79a9.21,9.21,0,0,0-9.21-9.2106Z"/><circle class="b" cx="28.8158" cy="76.7895" r="3.2237"/><path class="f" d="M73.9473,85.0791a8.29,8.29,0,1,1,8.29-8.29A8.2991,8.2991,0,0,1,73.9473,85.0791Z"/><path class="b" d="M73.9474,69.4211A7.3684,7.3684,0,1,1,66.5789,76.79a7.3767,7.3767,0,0,1,7.3685-7.3684m0-1.8422a9.2106,9.2106,0,1,0,9.21,9.2106,9.2106,9.2106,0,0,0-9.21-9.2106Z"/><circle class="b" cx="73.9474" cy="76.7895" r="3.2237"/><path class="f" d="M82.2368,35.3421A6.9079,6.9079,0,0,1,85,40.8684"/><path class="e" d="M82.2368,35.3421a3.585,3.585,0,0,1,1.4332.8716,4.8621,4.8621,0,0,1,1.01,1.359A4.3611,4.3611,0,0,1,85,40.8684c-.2094-.5321-.3448-1.0292-.5369-1.5051a12.34,12.34,0,0,0-.6047-1.3764A21.0484,21.0484,0,0,0,82.2368,35.3421Z"/></svg>