<svg xmlns="http://www.w3.org/2000/svg" width="100" height="100"><defs><style>.b{fill:#fff}.e{fill:#ccc}.f{fill:#0c1b5c}</style></defs><path d="M14 69s-8 0-8-7V51a7.105 7.105 0 014-6l7-3h55l17 5s5 2 5 6.5V64s0 5-5 5z" fill="#4b93ff"/><path class="b" d="M7 57h3.5a3.5 3.5 0 003.5-3.5 3.5 3.5 0 00-3.5-3.5H7zm87-1v3.5c-.035 0-2.07 0-2.104-.002a3.5 3.5 0 01-.022-6.996L94 52.5z"/><path d="M41.5 28.5V42l30.681.053L61.5 31.5s-3-3-6-3zm-7 0s-7 0-10 4-7.313 9.5-7.313 9.5H41.5V28.5z" stroke="#0c1b5c" stroke-miterlimit="10" stroke-width="2" fill="#ccc"/><path d="M14 69s-8 0-8-7V51a7.105 7.105 0 014-6l7-3h55l17 5s5 2 5 6.5V64s0 5-5 5z" fill="none" stroke="#0c1b5c" stroke-miterlimit="10" stroke-width="2"/><circle class="e" cx="76" cy="67" r="9"/><path class="f" d="M76 59a8 8 0 11-8 8 8.01 8.01 0 018-8m0-2a10 10 0 1010 10 10 10 0 00-10-10z"/><circle class="f" cx="76" cy="67" r="3.5"/><circle class="e" cx="24" cy="67" r="9"/><path class="f" d="M24 59a8 8 0 11-8 8 8.01 8.01 0 018-8m0-2a10 10 0 1010 10 10 10 0 00-10-10z"/><circle class="f" cx="24" cy="67" r="3.5"/><path class="b" d="M53 31a4.647 4.647 0 011.665-.244 6.572 6.572 0 011.66.243 5.674 5.674 0 011.543.72A3.337 3.337 0 0159 33a33.813 33.813 0 00-1.49-.588c-.49-.157-.97-.315-1.462-.454-.987-.294-1.988-.536-3.048-.958z"/></svg>