<svg xmlns="http://www.w3.org/2000/svg" width="100" height="100"><defs><style>.a{fill:#4b93ff}.b{fill:#0c1b5c}</style></defs><path class="a" d="M14.627 88.093V35.168L50 19.25l35.373 15.918v52.925H14.627z"/><path class="b" d="M50 20.245l34.465 15.51v51.431h-68.93V35.754L50 20.245m0-1.99L13.72 34.582V89h72.56V34.581L50 18.256z"/><path fill="#fff" d="M46.599 71.994v-11.79H34.354v-6.803h12.245V40.704h6.802v12.697h12.245v6.803H53.401v11.79h-6.802z"/><path class="b" d="M52.72 41.384V54.08h12.245v5.442H52.721v11.79h-5.442v-11.79H35.035V54.08h12.244V41.384h5.442m1.36-1.36H45.92V52.72H33.674v8.163H45.92v11.79h8.162v-11.79h12.245V52.72H54.08V40.023z"/><path class="a" d="M50 19.989L11 36.83v-8.001l39-16.841 39 16.841v8.001L50 19.989z"/><path class="b" d="M50 12.976l38.093 16.45v6.024L50.719 19.311l-.719-.31-.72.31L11.908 35.45v-6.025L50 12.975M50 11L10.093 28.233v9.976L50 20.977l39.907 17.232v-9.976L50 11z"/></svg>