<svg xmlns="http://www.w3.org/2000/svg" width="100" height="100"><defs><style>.a{fill:#0c1b5c}.b,.c{fill:#4b93ff;stroke:#0c1b5c;stroke-miterlimit:10;stroke-width:2px}.c{fill:none}</style></defs><path class="a" d="M54.167 13.833a4.167 4.167 0 11-8.334 0C45.833 11.533 50 8 50 8s4.167 3.532 4.167 5.833z"/><path class="b" d="M46 26.5h8V79h-8z"/><path class="b" d="M66 85h-8.07a8 8 0 10-15.86 0H34a2 2 0 00-2 2v6h36v-6a2 2 0 00-2-2z"/><circle class="b" cx="50" cy="23" r="6"/><circle class="a" cx="23" cy="23" r="5"/><path class="a" d="M37.455 64.023a15.005 15.005 0 01-28.834.264z"/><path class="a" d="M10.456 64.793l-1.835-.506 11.423-37.58 1.912.586-11.5 37.5zm24.999 0l2-.77-11.922-37.316-1.912.586 11.834 37.5z"/><path class="c" d="M27 21s6.695-6.573 18.347-1.786"/><circle class="a" cx="76.968" cy="23" r="5"/><path class="a" d="M62.514 64.023a15.005 15.005 0 0028.833.264z"/><path class="a" d="M89.512 64.793l1.835-.506-11.423-37.58-1.912.586 11.5 37.5zm-24.999 0l-2-.77 11.922-37.316 1.912.586-11.834 37.5z"/><path class="c" d="M72.968 21s-6.694-6.573-18.347-1.786"/></svg>