<svg xmlns="http://www.w3.org/2000/svg" width="100" height="100"><defs><style>.a{fill:#ccc}.c{fill:#0c1b5c}</style></defs><path class="a" d="M10 20h80v60H10z"/><path d="M49.425 63.025l-10.2 10.2-.097-4.853-4.853-.097 10.2-10.2 4.95 4.95zm.85 0l10.2 10.2.097-4.853 4.853-.097-10.2-10.2-4.95 4.95z" fill="#4b93ff"/><circle class="a" cx="50" cy="57" r="9"/><path class="c" d="M50 49a8 8 0 11-8 8 8.01 8.01 0 018-8m0-2a10 10 0 1010 10 10 10 0 00-10-10zM25.5 32.5h49v8h-49z"/><path class="c" d="M10 20v60h80V20zm76 49a7 7 0 00-7 7H21a7 7 0 00-7-7V31a7 7 0 007-7h58a7 7 0 007 7z"/></svg>