<svg xmlns="http://www.w3.org/2000/svg" width="100" height="100"><defs><style>.b{fill:#0c1b5c}</style></defs><path fill="#4b93ff" d="M15.711 18.907h69.578v50.399H15.711z"/><path class="b" d="M84.383 19.814v48.585H16.617V19.814h67.766M86.197 18H14.803v52.213h71.394V18z"/><path class="b" d="M86.197 70.213V18H14.803v52.213h28.77v6.394H29.989a2.397 2.397 0 00-2.398 2.397v3.73a.266.266 0 00.267.266h44.22a.266.266 0 00.267-.266v-3.996a2.131 2.131 0 00-2.13-2.131H56.36v-6.394zM18 65.951V22.262h65v43.689z"/><path fill="#ccc" d="M79.27 67.016h2.131v2.131H79.27z"/></svg>