<svg xmlns="http://www.w3.org/2000/svg" width="100" height="100"><defs><style>.a,.d{fill:none;stroke-miterlimit:10}.a{stroke:#0c1b5c;stroke-width:2.2254px}.d{stroke:#4b93ff;stroke-width:1.814px}</style></defs><path class="a" d="M20.014 89h58.972m-48.958 0l14.465-53.408M70.085 89L55.62 35.592M32.254 82.324h35.605m-34.493-5.563h33.38M35.592 66.746h28.929M38.93 57.845h22.253M41.155 47.831h17.803m-17.803 0l20.028 10.014m0 0l-25.591 8.901m0 0l31.154 10.015m-28.929 5.563V89m5.563-6.676V89m6.676-6.676V89m6.676-6.676V89m5.564-6.676V89"/><circle cx="50.056" cy="27.803" r="3.338" fill="#4b93ff"/><path d="M50.056 20.014a7.789 7.789 0 11-7.788 7.789 7.798 7.798 0 017.788-7.789m0-2.225A10.014 10.014 0 1060.07 27.803a10.014 10.014 0 00-10.014-10.014z" fill="#0c1b5c"/><path class="d" d="M30.028 10s-15.577 16.69 0 36.718"/><path class="a" d="M35.592 13.338s-13.353 12.24-1.113 28.93"/><path class="d" d="M40.042 18.465s-8.62 7.901-.718 18.675M69.837 10s15.578 16.69 0 36.718"/><path class="a" d="M64.274 13.338s13.352 12.24 1.112 28.93"/><path class="d" d="M59.823 18.465s8.62 7.901.718 18.675"/></svg>