<svg xmlns="http://www.w3.org/2000/svg" width="100" height="100"><defs><style>.c{fill:#4b93ff}.b{fill:#0c1b5c}.c{stroke:#0c1b5c;stroke-miterlimit:10;stroke-width:1.8421px}.f{fill:#ccc}.e{fill:#fff}</style></defs><path fill="#4b93ff" d="M10.38 16.907h42.397v41.475H10.38z"/><path class="b" d="M51.87 17.814v39.661H11.288V17.814H51.87M53.684 16H9.474v43.29h44.21V16z"/><path class="c" d="M9.474 59.289h44.211v16.579H9.474z"/><path class="c" d="M58.29 26.132h18.421a9.188 9.188 0 017.368 4.605 118.088 118.088 0 016.448 13.816v25.79s0 5.526-5.527 5.526H53.684V30.507s.921-4.375 4.606-4.375z"/><path d="M90.526 52.842H69.342A1.842 1.842 0 0167.5 51V34.421a1.842 1.842 0 011.842-1.842H85l5.526 11.628z" fill="#ccc" stroke="#0c1b5c" stroke-miterlimit="10" stroke-width="1.842"/><path class="e" d="M89.605 62.053v3.223l-1.938-.001a3.224 3.224 0 01-.02-6.444l1.958-.002zm-79.21 3.684v-3.224c.032 0 1.906 0 1.938.002a3.224 3.224 0 01.02 6.443c-.038.002-1.92.002-1.958.002z"/><path class="f" d="M28.816 85.08a8.29 8.29 0 118.29-8.29 8.3 8.3 0 01-8.29 8.29z"/><path class="b" d="M28.816 69.421a7.368 7.368 0 11-7.369 7.369 7.377 7.377 0 017.369-7.368m0-1.843a9.21 9.21 0 109.21 9.211 9.21 9.21 0 00-9.21-9.21z"/><circle class="b" cx="28.816" cy="76.79" r="3.224"/><path class="f" d="M73.947 85.08a8.29 8.29 0 118.29-8.29 8.3 8.3 0 01-8.29 8.29z"/><path class="b" d="M73.947 69.421a7.368 7.368 0 11-7.368 7.369 7.377 7.377 0 017.368-7.368m0-1.843a9.21 9.21 0 109.21 9.211 9.21 9.21 0 00-9.21-9.21z"/><circle class="b" cx="73.947" cy="76.79" r="3.224"/><path class="f" d="M82.237 35.342A6.908 6.908 0 0185 40.868"/><path class="e" d="M82.237 35.342a3.585 3.585 0 011.433.872 4.862 4.862 0 011.01 1.359 4.361 4.361 0 01.32 3.295c-.21-.532-.345-1.029-.537-1.505a12.34 12.34 0 00-.605-1.376 21.048 21.048 0 00-1.621-2.645z"/></svg>